<?xml version="1.0" encoding="utf-8"?>
<!-- Generator: Adobe Illustrator 17.1.0, SVG Export Plug-In . SVG Version: 6.00 Build 0)  -->
<!DOCTYPE svg PUBLIC "-//W3C//DTD SVG 1.1//EN" "http://www.w3.org/Graphics/SVG/1.1/DTD/svg11.dtd">
<svg version="1.1" id="Layer_1" xmlns="http://www.w3.org/2000/svg" xmlns:xlink="http://www.w3.org/1999/xlink" x="0px" y="0px"
	 width="250px" height="250px" viewBox="0 0 250 250" enable-background="new 0 0 250 250" xml:space="preserve">
<circle fill="#29A3D2" cx="125" cy="125" r="115"/>
<path display="none" fill="#FFFFFF" d="M61.9,136.8c0-5.8,1.6-11.1,4.7-15.9s7.2-8.4,12.3-10.8c-0.1-1.2-0.1-2.2-0.1-2.8
	c0-9.3,3.3-17.2,9.9-23.8s14.5-9.9,23.8-9.9c6.9,0,13.2,1.9,18.8,5.8s9.7,8.9,12.3,15.1c3.1-2.7,6.7-4.1,10.9-4.1
	c4.6,0,8.6,1.6,11.9,4.9c3.3,3.3,4.9,7.3,4.9,11.9c0,3.3-0.9,6.3-2.7,9.1c5.7,1.3,10.3,4.3,14,8.8c3.7,4.6,5.5,9.8,5.5,15.7
	c0,7-2.5,12.9-7.4,17.9s-10.9,7.4-17.9,7.4H91.3c-8.1,0-15-2.9-20.8-8.6C64.8,151.9,61.9,144.9,61.9,136.8z"/>
<path display="none" fill="#29A3D2" d="M104.2,147.1v-12.2c0-0.8,0.4-1.3,1.1-1.6s1.3-0.2,1.9,0.4l3.9,3.9l9.6-9.6l-9.6-9.6
	l-3.9,3.9c-0.3,0.3-0.8,0.5-1.2,0.5c-0.2,0-0.4,0-0.7-0.1c-0.7-0.3-1.1-0.8-1.1-1.6v-12.2c0-0.5,0.2-0.9,0.5-1.2
	c0.3-0.3,0.8-0.5,1.2-0.5h12.2c0.8,0,1.3,0.4,1.6,1.1c0.3,0.7,0.2,1.3-0.4,1.9l-3.9,3.9l9.6,9.6l9.6-9.6l-3.9-3.9
	c-0.6-0.5-0.7-1.2-0.4-1.9c0.3-0.7,0.8-1.1,1.6-1.1h12.2c0.5,0,0.9,0.2,1.2,0.5s0.5,0.8,0.5,1.2v12.2c0,0.8-0.4,1.3-1.1,1.6
	c-0.2,0.1-0.5,0.1-0.7,0.1c-0.5,0-0.9-0.2-1.2-0.5l-3.9-3.9l-9.6,9.6l9.6,9.6l3.9-3.9c0.5-0.6,1.2-0.7,1.9-0.4s1.1,0.8,1.1,1.6v12.2
	c0,0.5-0.2,0.9-0.5,1.2s-0.8,0.5-1.2,0.5h-12.2c-0.8,0-1.3-0.4-1.6-1.1c-0.3-0.7-0.2-1.3,0.4-1.9l3.9-3.9l-9.6-9.6l-9.6,9.6l3.9,3.9
	c0.6,0.5,0.7,1.2,0.4,1.9c-0.3,0.7-0.8,1.1-1.6,1.1h-12.2c-0.5,0-0.9-0.2-1.2-0.5C104.3,148,104.2,147.6,104.2,147.1z"/>
<path fill="#29A3D2" d="M107.1,144v-17.9c0-0.8,0.3-1.5,0.9-2.1s1.3-0.9,2.1-0.9h1v-6c0-3.8,1.4-7.1,4.1-9.8c2.7-2.7,6-4.1,9.8-4.1
	s7.1,1.4,9.8,4.1s4.1,6,4.1,9.8v6h1c0.8,0,1.5,0.3,2.1,0.9s0.9,1.3,0.9,2.1V144c0,0.8-0.3,1.5-0.9,2.1c-0.6,0.6-1.3,0.9-2.1,0.9
	h-29.8c-0.8,0-1.5-0.3-2.1-0.9C107.4,145.6,107.1,144.9,107.1,144z M117.1,123.2H133v-6c0-2.2-0.8-4.1-2.3-5.6
	c-1.6-1.6-3.4-2.3-5.6-2.3s-4.1,0.8-5.6,2.3c-1.6,1.6-2.3,3.4-2.3,5.6L117.1,123.2L117.1,123.2z"/>
<path display="none" fill="#FFFFFF" d="M84.1,179.5c-5,0-8.3-1.5-10-4.5c-1.6-3-1.1-6.6,1.5-10.8l35.7-56.2V79.6h-4.5
	c-1.2,0-2.3-0.4-3.2-1.3c-0.9-0.9-1.3-2-1.3-3.2s0.4-2.3,1.3-3.2c0.9-0.9,2-1.3,3.2-1.3h36.3c1.2,0,2.3,0.5,3.2,1.3
	c0.9,0.9,1.3,2,1.3,3.2s-0.4,2.3-1.3,3.2c-0.9,0.9-2,1.3-3.2,1.3h-4.5v28.3l35.7,56.2c2.6,4.2,3.2,7.8,1.5,10.8c-1.6,3-5,4.5-10,4.5
	H84.1V179.5z M99.7,143.2h50.5L131,112.7l-1.4-2.2v-2.6V79.6h-9.1v28.3v2.6l-1.4,2.2L99.7,143.2z"/>
<path display="none" fill="#FFFFFF" d="M66.6,149.7c-3.4-7.8-5-16.1-5-24.7s1.7-16.8,5-24.7C70,92.5,74.5,85.7,80.1,80
	c5.7-5.7,12.4-10.2,20.3-13.5c7.8-3.4,16.1-5,24.7-5s16.8,1.7,24.7,5c7.8,3.4,14.6,7.9,20.3,13.5c5.7,5.7,10.2,12.4,13.5,20.3
	c3.4,7.8,5,16.1,5,24.7s-1.7,16.8-5,24.7c-3.4,7.8-7.9,14.6-13.5,20.3s-12.4,10.2-20.3,13.5c-7.8,3.4-16.1,5-24.7,5
	s-16.8-1.7-24.7-5c-7.8-3.4-14.6-7.9-20.3-13.5C74.4,164.2,69.9,157.5,66.6,149.7z M77,99.4c-4.3,8.1-6.4,16.6-6.4,25.6
	s2.1,17.5,6.4,25.6l13.7-13.7c-1.3-3.9-2-7.8-2-11.8s0.7-8,2-11.8L77,99.4L77,99.4z M105.8,105.8c-5.3,5.3-8,11.7-8,19.2
	s2.7,13.9,8,19.2s11.7,8,19.2,8s13.9-2.7,19.2-8s8-11.7,8-19.2s-2.7-13.9-8-19.2s-11.7-8-19.2-8S111.1,100.5,105.8,105.8z M99.4,77
	l13.7,13.7c3.9-1.3,7.8-2,11.8-2c4,0,8,0.7,11.8,2L150.6,77c-8.1-4.3-16.6-6.4-25.6-6.4C116,70.6,107.5,72.7,99.4,77z M99.4,173
	c8.1,4.3,16.6,6.4,25.6,6.4s17.5-2.1,25.6-6.4l-13.7-13.7c-3.9,1.3-7.8,2-11.8,2s-8-0.7-11.8-2L99.4,173z M159.3,136.8l13.7,13.7
	c4.3-8.1,6.4-16.6,6.4-25.6s-2.1-17.5-6.4-25.6L159.3,113c1.3,3.9,2,7.8,2,11.8C161.3,129,160.6,133,159.3,136.8z"/>
<path display="none" fill="#FFFFFF" d="M63.6,151c0-1.2,0.4-2.2,1.3-3c0.9-0.9,1.9-1.3,3-1.3V125c0-0.4,0-1.1,0-2.4
	c0-1.2,0-2.1,0-2.6s0.1-1.3,0.2-2.3c0.1-1.1,0.2-1.9,0.4-2.5c0.2-0.6,0.5-1.3,0.9-2.1c0.4-0.8,0.9-1.4,1.5-2l13.4-13.4
	c0.9-0.9,2-1.6,3.4-2.2s2.7-0.9,4-0.9h10.8v-13c0-1.2,0.4-2.2,1.3-3c0.9-0.9,1.9-1.3,3-1.3H176c1.2,0,2.2,0.4,3,1.3
	c0.9,0.9,1.3,1.9,1.3,3V151c0,0.7-0.1,1.3-0.3,1.8s-0.5,0.9-0.9,1.3c-0.4,0.3-0.8,0.6-1.1,0.8s-0.8,0.3-1.6,0.4
	c-0.7,0.1-1.3,0.1-1.5,0.1c-0.3,0-0.8,0-1.7,0s-1.4,0-1.5,0c0,4.8-1.7,8.9-5.1,12.2c-3.4,3.4-7.5,5.1-12.2,5.1
	c-4.8,0-8.9-1.7-12.2-5.1s-5.1-7.5-5.1-12.2h-26c0,4.8-1.7,8.9-5.1,12.2c-3.4,3.4-7.5,5.1-12.2,5.1c-4.8,0-8.9-1.7-12.2-5.1
	c-3.4-3.4-5.1-7.5-5.1-12.2h-4.3c-0.1,0-0.6,0-1.5,0s-1.5,0-1.7,0c-0.3,0-0.8-0.1-1.5-0.1c-0.7-0.1-1.3-0.2-1.6-0.4
	c-0.3-0.2-0.7-0.5-1.1-0.8s-0.7-0.7-0.9-1.3C63.7,152.2,63.6,151.6,63.6,151z M76.6,120.7h26v-17.3H91.8c-0.6,0-1.1,0.2-1.5,0.6
	l-13.2,13.2c-0.4,0.4-0.6,0.9-0.6,1.5L76.6,120.7L76.6,120.7z M87.8,149.2c-1.7,1.7-2.6,3.7-2.6,6.1c0,2.3,0.9,4.4,2.6,6.1
	c1.7,1.7,3.7,2.6,6.1,2.6c2.3,0,4.4-0.9,6.1-2.6c1.7-1.7,2.6-3.7,2.6-6.1c0-2.3-0.9-4.4-2.6-6.1c-1.7-1.7-3.7-2.6-6.1-2.6
	C91.5,146.6,89.5,147.5,87.8,149.2z M148.4,149.2c-1.7,1.7-2.6,3.7-2.6,6.1c0,2.3,0.9,4.4,2.6,6.1c1.7,1.7,3.7,2.6,6.1,2.6
	c2.3,0,4.4-0.9,6.1-2.6c1.7-1.7,2.6-3.7,2.6-6.1c0-2.3-0.9-4.4-2.6-6.1c-1.7-1.7-3.7-2.6-6.1-2.6
	C152.1,146.6,150.1,147.5,148.4,149.2z"/>
<path fill="#FFFFFF" d="M73.9,167.6v-29.8c0-1.2,0.4-2.2,1.3-3c0.8-0.8,1.8-1.3,3-1.3H108c1.2,0,2.2,0.4,3,1.3
	c0.8,0.8,1.3,1.8,1.3,3c0,1.2-0.4,2.2-1.3,3l-9.1,9.1c3.1,2.9,6.7,5.2,10.7,6.8c4,1.6,8.1,2.4,12.4,2.4c5.9,0,11.5-1.4,16.6-4.3
	c5.1-2.9,9.3-6.9,12.4-11.9c0.5-0.8,1.7-3.3,3.5-7.8c0.4-1,1-1.5,2-1.5h12.8c0.6,0,1.1,0.2,1.5,0.6c0.4,0.4,0.6,0.9,0.6,1.5
	c0,0.2,0,0.4-0.1,0.5c-2.8,11.9-8.8,21.5-17.8,28.9c-9.1,7.4-19.7,11.1-31.8,11.1c-6.5,0-12.7-1.2-18.8-3.7
	c-6.1-2.4-11.5-5.9-16.2-10.4l-8.6,8.6c-0.8,0.8-1.8,1.3-3,1.3c-1.2,0-2.2-0.4-3-1.3C74.3,169.7,73.9,168.7,73.9,167.6z M75.1,114.4
	v-0.5C78,102,84,92.4,93.1,85c9.1-7.4,19.7-11.1,31.9-11.1c6.5,0,12.8,1.2,18.9,3.7c6.1,2.5,11.6,5.9,16.3,10.4l8.7-8.6
	c0.8-0.8,1.8-1.3,3-1.3c1.2,0,2.2,0.4,3,1.3c0.8,0.8,1.3,1.8,1.3,3v29.8c0,1.2-0.4,2.2-1.3,3c-0.8,0.8-1.8,1.3-3,1.3H142
	c-1.2,0-2.2-0.4-3-1.3c-0.8-0.8-1.3-1.8-1.3-3c0-1.2,0.4-2.2,1.3-3l9.2-9.2c-6.6-6.1-14.3-9.1-23.2-9.1c-5.9,0-11.5,1.4-16.6,4.3
	c-5.1,2.9-9.3,6.9-12.4,11.9c-0.5,0.8-1.7,3.4-3.5,7.8c-0.4,1-1,1.5-2,1.5H77.2c-0.6,0-1.1-0.2-1.5-0.6
	C75.3,115.4,75.1,114.9,75.1,114.4z"/>
</svg>
